<svg width="992" height="202" viewBox="0 0 992 202" fill="none" xmlns="http://www.w3.org/2000/svg">
<rect x="0.5" y="0.5" width="991" height="201" rx="8.5" stroke="#858386" stroke-dasharray="8 8"/>
<g clip-path="url(#clip0_661_5581)">
<path d="M438.25 88.25H433.75V83.75C433.75 83.3358 433.414 83 433 83C432.586 83 432.25 83.3358 432.25 83.75V88.25H427.75C427.336 88.25 427 88.5858 427 89C427 89.4142 427.336 89.75 427.75 89.75H432.25V94.25C432.25 94.6642 432.586 95 433 95C433.414 95 433.75 94.6642 433.75 94.25V89.75H438.25C438.664 89.75 439 89.4142 439 89C439 88.5858 438.664 88.25 438.25 88.25Z" fill="#1BD27D"/>
</g>
<path d="M454.938 82.75C454.93 86.875 453.586 90.5469 448.609 93.0781L447.781 91.9531C450.234 90.7031 451.75 89.1953 452.602 87.4141L448.062 87.8438L447.828 86.5625L453.055 86.2344C453.273 85.5156 453.406 84.75 453.461 83.9531H448.547V82.75H454.938ZM454.906 88.0938V86.875H457.984V81.3281H459.453V95.3281H457.984V88.0938H454.906ZM473.297 81.3281V95.3594H471.828V87.6562H468.734V91.8906H462.172V82.4062H463.672V85.9844H467.281V82.4062H468.734V86.4375H471.828V81.3281H473.297ZM463.672 90.6719H467.281V87.1562H463.672V90.6719ZM484.219 84.8906C484.203 87.3672 485.648 89.9062 487.734 90.9219L486.812 92.1094C485.289 91.3125 484.109 89.75 483.492 87.8828C482.867 89.8672 481.641 91.5469 480.047 92.375L479.125 91.1719C481.273 90.1406 482.727 87.4531 482.734 84.8906V82.5H484.219V84.8906ZM488.781 95.3281V81.3281H490.266V86.9062H492.516V88.1719H490.266V95.3281H488.781ZM498.375 84.25C498.375 86.0625 499.711 87.7656 501.875 88.4531L501.109 89.6094C499.5 89.0781 498.289 87.9766 497.648 86.5781C497.023 88.1016 495.773 89.3047 494.109 89.8906L493.344 88.7188C495.523 87.9766 496.867 86.1641 496.875 84.25V83.6406H493.734V82.4375H501.453V83.6406H498.375V84.25ZM495.641 95.0312V90.5938H497.141V93.8281H505.219V95.0312H495.641ZM503.312 91.5625V81.3438H504.797V91.5625H503.312ZM523.688 89.7656V90.9844H518.031V95.3438H516.562V90.9844H510.922V89.7656H523.688ZM511.672 87.6094C514.328 87.2734 516.469 85.7891 516.562 84.2188H512.125V83.0156H516.562V81.3281H518.031V83.0156H522.469V84.2188H518.047C518.125 85.7734 520.242 87.2734 522.906 87.6094L522.375 88.7969C520.125 88.4844 518.211 87.4297 517.305 86C516.398 87.4453 514.477 88.4844 512.219 88.7969L511.672 87.6094ZM535.656 81.3281V86.9062H537.828V88.1406H535.656V95.3125H534.172V81.3281H535.656ZM524.766 91.5781C528.273 89.8281 530.18 87.2969 530.484 84.0312H525.469V82.7969H532C531.984 86.8438 530.203 90.4609 525.594 92.7344L524.766 91.5781ZM549.484 81.3281V87H551.734V88.2344H549.484V95.3281H548.016V81.3281H549.484ZM538.5 84.7344V83.5156H541.953V81.5156H543.438V83.5156H546.797V84.7344H538.5ZM539.219 89.0156C539.219 87.1094 540.688 85.7656 542.703 85.7656C544.711 85.7656 546.18 87.1094 546.188 89.0156C546.18 90.9375 544.711 92.2734 542.703 92.2812C540.688 92.2734 539.219 90.9375 539.219 89.0156ZM540.641 89.0156C540.633 90.2344 541.508 91.0469 542.703 91.0312C543.891 91.0469 544.758 90.2344 544.766 89.0156C544.758 87.8203 543.891 86.9922 542.703 86.9844C541.508 86.9922 540.633 87.8203 540.641 89.0156ZM564.047 81.3281V95.3281H562.547V81.3281H564.047ZM552.547 91.5781C556.266 89.8047 558.086 87.2812 558.375 84.0156H553.219V82.8281H559.875C559.875 86.9297 558.133 90.4766 553.328 92.7812L552.547 91.5781Z" fill="white"/>
<path d="M398.835 110.102V120H397.317V111.605H397.263L394.897 113.15V111.715L397.358 110.102H398.835ZM404.755 109.965C406.573 109.979 408.48 111.072 408.487 114.695C408.487 118.168 406.99 120.137 404.618 120.137C402.793 120.137 401.521 119.009 401.282 117.402H402.772C402.978 118.236 403.62 118.817 404.618 118.824C406.143 118.817 407.038 117.491 407.052 115.229H406.929C406.396 116.062 405.466 116.568 404.399 116.568C402.622 116.568 401.2 115.208 401.2 113.314C401.2 111.428 402.602 109.951 404.755 109.965ZM402.663 113.287C402.67 114.436 403.524 115.345 404.728 115.338C405.924 115.345 406.847 114.367 406.847 113.273C406.847 112.2 405.965 111.223 404.755 111.223C403.559 111.223 402.656 112.152 402.663 113.287ZM410.073 120V118.906L413.505 115.447C414.592 114.319 415.132 113.69 415.132 112.822C415.132 111.845 414.339 111.223 413.3 111.223C412.199 111.223 411.502 111.92 411.495 112.973H410.073C410.06 111.161 411.44 109.965 413.327 109.965C415.234 109.965 416.554 111.175 416.567 112.781C416.554 113.889 416.034 114.771 414.175 116.596L412.165 118.633V118.715H416.731V120H410.073ZM421.845 120.137C419.555 120.137 418.208 118.291 418.208 115.051C418.208 111.831 419.568 109.965 421.845 109.965C424.114 109.965 425.475 111.831 425.481 115.051C425.475 118.291 424.135 120.137 421.845 120.137ZM419.712 115.051C419.705 117.519 420.505 118.838 421.845 118.838C423.178 118.838 423.978 117.519 423.978 115.051C423.978 112.59 423.171 111.243 421.845 111.236C420.512 111.243 419.712 112.59 419.712 115.051ZM428.298 118.359L427.382 117.443L429.706 115.105L427.382 112.795L428.298 111.879L430.622 114.189L432.946 111.879L433.862 112.795L431.538 115.105L433.862 117.443L432.946 118.359L430.622 116.035L428.298 118.359ZM439.7 110.102V120H438.183V111.605H438.128L435.763 113.15V111.715L438.224 110.102H439.7ZM445.661 120.137C443.371 120.137 442.024 118.291 442.024 115.051C442.024 111.831 443.385 109.965 445.661 109.965C447.931 109.965 449.291 111.831 449.298 115.051C449.291 118.291 447.951 120.137 445.661 120.137ZM443.528 115.051C443.521 117.519 444.321 118.838 445.661 118.838C446.994 118.838 447.794 117.519 447.794 115.051C447.794 112.59 446.987 111.243 445.661 111.236C444.328 111.243 443.528 112.59 443.528 115.051ZM454.315 120.137C452.162 120.137 450.665 118.975 450.679 117.361C450.665 116.09 451.574 115.051 452.743 114.873V114.818C451.725 114.586 451.048 113.684 451.048 112.604C451.048 111.079 452.422 109.965 454.315 109.965C456.182 109.965 457.562 111.079 457.569 112.604C457.562 113.684 456.872 114.586 455.874 114.818V114.873C457.029 115.051 457.945 116.09 457.952 117.361C457.945 118.975 456.435 120.137 454.315 120.137ZM452.21 117.252C452.189 118.223 453.01 118.893 454.315 118.893C455.601 118.893 456.421 118.223 456.421 117.252C456.421 116.233 455.532 115.488 454.315 115.488C453.085 115.488 452.189 116.233 452.21 117.252ZM452.511 112.74C452.518 113.663 453.256 114.306 454.315 114.299C455.348 114.306 456.1 113.67 456.093 112.74C456.1 111.817 455.375 111.188 454.315 111.195C453.229 111.188 452.518 111.817 452.511 112.74ZM462.956 120.137C460.666 120.137 459.319 118.291 459.319 115.051C459.319 111.831 460.68 109.965 462.956 109.965C465.226 109.965 466.586 111.831 466.593 115.051C466.586 118.291 465.246 120.137 462.956 120.137ZM460.823 115.051C460.816 117.519 461.616 118.838 462.956 118.838C464.289 118.838 465.089 117.519 465.089 115.051C465.089 112.59 464.282 111.243 462.956 111.236C461.623 111.243 460.823 112.59 460.823 115.051ZM481.003 110.102V111.592C481.003 113.383 481.003 115.064 480.47 117.607L479.185 117.484C479.444 116.356 479.581 115.379 479.649 114.47L472.294 114.859L472.13 113.793L479.711 113.506C479.738 112.85 479.738 112.221 479.745 111.592V111.168H472.472V110.102H481.003ZM471.146 119.521V118.455H482.315V119.521H471.146ZM493.431 108.912V121.162H492.118V108.912H493.431ZM483.368 117.881C486.622 116.329 488.215 114.121 488.468 111.264H483.956V110.225H489.78C489.78 113.813 488.256 116.917 484.052 118.934L483.368 117.881ZM506.556 118.605V119.699H495.345V118.605H500.28V116.459H496.712V112.562H503.903V110.84H496.685V109.773H505.188V113.602H497.997V115.393H505.476V116.459H501.565V118.605H506.556ZM514.253 109.473C515.866 109.459 517.117 110.396 517.384 111.77H519.776V108.912H521.075V115.488H519.776V112.836H517.391C517.138 114.244 515.88 115.188 514.253 115.188C512.38 115.188 511.033 114.005 511.04 112.316C511.033 110.648 512.38 109.459 514.253 109.473ZM512.284 112.316C512.277 113.362 513.098 114.094 514.253 114.094C515.388 114.094 516.194 113.362 516.194 112.316C516.194 111.264 515.388 110.546 514.253 110.553C513.098 110.546 512.277 111.264 512.284 112.316ZM513.091 121.012V116.076H514.376V117.498H519.776V116.076H521.075V121.012H513.091ZM514.376 119.945H519.776V118.523H514.376V119.945ZM534.173 118.605V119.699H522.962V118.605H527.897V116.459H524.329V112.562H531.521V110.84H524.302V109.773H532.806V113.602H525.614V115.393H533.093V116.459H529.183V118.605H534.173ZM544.987 114.723V115.789H536.456V110.006H544.878V111.072H537.741V114.723H544.987ZM535.062 119.549V118.469H546.272V119.549H535.062ZM553.218 110.936V111.988H547.134V110.936H549.54V109.268H550.825V110.936H553.218ZM547.53 115.543C547.523 113.896 548.645 112.727 550.183 112.727C551.734 112.727 552.842 113.896 552.849 115.543C552.842 117.218 551.734 118.394 550.183 118.387C548.645 118.394 547.523 117.218 547.53 115.543ZM548.679 115.543C548.672 116.582 549.301 117.279 550.183 117.279C551.064 117.279 551.7 116.582 551.7 115.543C551.7 114.524 551.064 113.813 550.183 113.807C549.301 113.813 548.672 114.524 548.679 115.543ZM553.778 120.588V109.186H555.009V114.012H556.417V108.912H557.647V121.162H556.417V115.078H555.009V120.588H553.778ZM570.431 115.816V116.869H565.454V121.148H564.183V116.869H559.261V115.816H570.431ZM559.89 113.861C562.173 113.547 564.073 112.187 564.114 110.676H560.3V109.637H569.378V110.676H565.591C565.611 112.187 567.498 113.547 569.815 113.861L569.337 114.887C567.327 114.572 565.591 113.581 564.846 112.187C564.094 113.581 562.364 114.572 560.382 114.887L559.89 113.861ZM575.093 112.262C575.093 114.217 575.913 116.302 577.554 117.307L576.829 118.305C575.681 117.614 574.908 116.391 574.484 114.976C574.04 116.527 573.192 117.854 572.003 118.578L571.196 117.607C572.926 116.568 573.842 114.401 573.835 112.316V110.033H575.093V112.262ZM576.228 114.299V113.219H578.128V109.145H579.358V120.561H578.128V114.299H576.228ZM580.657 121.162V108.912H581.901V121.162H580.657ZM594.671 118.551V119.631H583.46V118.551H586.14V115.352C585.135 114.798 584.52 113.923 584.526 112.822C584.52 110.895 586.413 109.63 589.038 109.623C591.67 109.63 593.563 110.895 593.563 112.822C593.563 113.902 592.976 114.771 591.991 115.324V118.551H594.671ZM585.784 112.822C585.784 114.135 587.117 114.989 589.038 114.996C590.945 114.989 592.299 114.135 592.306 112.822C592.299 111.503 590.945 110.662 589.038 110.662C587.117 110.662 585.784 111.503 585.784 112.822ZM587.425 118.551H590.679V115.83C590.18 115.946 589.626 116.008 589.038 116.008C588.464 116.008 587.917 115.946 587.425 115.83V118.551ZM596.954 120.096C596.421 120.089 595.977 119.658 595.983 119.125C595.977 118.592 596.421 118.154 596.954 118.154C597.48 118.154 597.918 118.592 597.925 119.125C597.918 119.658 597.48 120.089 596.954 120.096Z" fill="#ADACAF"/>
<defs>
<clipPath id="clip0_661_5581">
<rect width="12" height="12" fill="white" transform="translate(427 83)"/>
</clipPath>
</defs>
</svg>
