<svg width="746" height="202" viewBox="0 0 746 202" fill="none" xmlns="http://www.w3.org/2000/svg">
<rect x="0.5" y="0.5" width="745" height="201" rx="8.5" stroke="#858386" strokeDasharray="8 8"/>
<g clipPath="url(#clip0_661_5581)">
<path d="M315.25 100.75H310.75V96.25C310.75 95.8358 310.414 95.5 310 95.5C309.586 95.5 309.25 95.8358 309.25 96.25V100.75H304.75C304.336 100.75 304 101.086 304 101.5C304 101.914 304.336 102.25 304.75 102.25H309.25V106.75C309.25 107.164 309.586 107.5 310 107.5C310.414 107.5 310.75 107.164 310.75 106.75V102.25H315.25C315.664 102.25 316 101.914 316 101.5C316 101.086 315.664 100.75 315.25 100.75Z" fill="#1BD27D"/>
</g>
<path d="M331.938 95.25C331.93 99.375 330.586 103.047 325.609 105.578L324.781 104.453C327.234 103.203 328.75 101.695 329.602 99.9141L325.062 100.344L324.828 99.0625L330.055 98.7344C330.273 98.0156 330.406 97.25 330.461 96.4531H325.547V95.25H331.938ZM331.906 100.594V99.375H334.984V93.8281H336.453V107.828H334.984V100.594H331.906ZM350.297 93.8281V107.859H348.828V100.156H345.734V104.391H339.172V94.9062H340.672V98.4844H344.281V94.9062H345.734V98.9375H348.828V93.8281H350.297ZM340.672 103.172H344.281V99.6562H340.672V103.172ZM361.219 97.3906C361.203 99.8672 362.648 102.406 364.734 103.422L363.812 104.609C362.289 103.812 361.109 102.25 360.492 100.383C359.867 102.367 358.641 104.047 357.047 104.875L356.125 103.672C358.273 102.641 359.727 99.9531 359.734 97.3906V95H361.219V97.3906ZM365.781 107.828V93.8281H367.266V99.4062H369.516V100.672H367.266V107.828H365.781ZM375.375 96.75C375.375 98.5625 376.711 100.266 378.875 100.953L378.109 102.109C376.5 101.578 375.289 100.477 374.648 99.0781C374.023 100.602 372.773 101.805 371.109 102.391L370.344 101.219C372.523 100.477 373.867 98.6641 373.875 96.75V96.1406H370.734V94.9375H378.453V96.1406H375.375V96.75ZM372.641 107.531V103.094H374.141V106.328H382.219V107.531H372.641ZM380.312 104.062V93.8438H381.797V104.062H380.312ZM400.688 102.266V103.484H395.031V107.844H393.562V103.484H387.922V102.266H400.688ZM388.672 100.109C391.328 99.7734 393.469 98.2891 393.562 96.7188H389.125V95.5156H393.562V93.8281H395.031V95.5156H399.469V96.7188H395.047C395.125 98.2734 397.242 99.7734 399.906 100.109L399.375 101.297C397.125 100.984 395.211 99.9297 394.305 98.5C393.398 99.9453 391.477 100.984 389.219 101.297L388.672 100.109ZM412.656 93.8281V99.4062H414.828V100.641H412.656V107.812H411.172V93.8281H412.656ZM401.766 104.078C405.273 102.328 407.18 99.7969 407.484 96.5312H402.469V95.2969H409C408.984 99.3438 407.203 102.961 402.594 105.234L401.766 104.078ZM426.484 93.8281V99.5H428.734V100.734H426.484V107.828H425.016V93.8281H426.484ZM415.5 97.2344V96.0156H418.953V94.0156H420.438V96.0156H423.797V97.2344H415.5ZM416.219 101.516C416.219 99.6094 417.688 98.2656 419.703 98.2656C421.711 98.2656 423.18 99.6094 423.188 101.516C423.18 103.438 421.711 104.773 419.703 104.781C417.688 104.773 416.219 103.438 416.219 101.516ZM417.641 101.516C417.633 102.734 418.508 103.547 419.703 103.531C420.891 103.547 421.758 102.734 421.766 101.516C421.758 100.32 420.891 99.4922 419.703 99.4844C418.508 99.4922 417.633 100.32 417.641 101.516ZM441.047 93.8281V107.828H439.547V93.8281H441.047ZM429.547 104.078C433.266 102.305 435.086 99.7812 435.375 96.5156H430.219V95.3281H436.875C436.875 99.4297 435.133 102.977 430.328 105.281L429.547 104.078Z" fill="white"/>
<defs>
<clipPath id="clip0_661_5581">
<rect width="12" height="12" fill="white" transform="translate(304 95.5)"/>
</clipPath>
</defs>
</svg>
