<svg width="154" height="219" viewBox="0 0 154 219" fill="none" xmlns="http://www.w3.org/2000/svg">
<g clip-path="url(#clip0_2045_7119)">
<rect width="154" height="219" fill="#4C494E"/>
<g clip-path="url(#clip1_2045_7119)">
<path d="M75.61 88.8489C75.1688 88.4075 74.6451 88.0573 74.0686 87.8184C73.4921 87.5795 72.8742 87.4565 72.2501 87.4565C71.6261 87.4565 71.0082 87.5795 70.4317 87.8184C69.8552 88.0573 69.3314 88.4075 68.8903 88.8489L58.0603 99.6789C58.2067 101.665 59.0972 103.522 60.5539 104.879C62.0105 106.236 63.9258 106.994 65.9168 107H88.0835C89.6347 107 91.1512 106.541 92.4424 105.681L75.61 88.8489Z" fill="#676668"/>
<path d="M86.4997 81.6671C88.2486 81.6671 89.6663 80.2493 89.6663 78.5004C89.6663 76.7515 88.2486 75.3337 86.4997 75.3337C84.7508 75.3337 83.333 76.7515 83.333 78.5004C83.333 80.2493 84.7508 81.6671 86.4997 81.6671Z" fill="#676668"/>
<path d="M88.0833 69H65.9167C63.8178 69.0025 61.8056 69.8374 60.3215 71.3215C58.8374 72.8056 58.0025 74.8178 58 76.9167V95.2612L66.6513 86.6098C67.3865 85.8745 68.2593 85.2912 69.2199 84.8932C70.1806 84.4952 71.2102 84.2904 72.25 84.2904C73.2898 84.2904 74.3194 84.4952 75.2801 84.8932C76.2407 85.2912 77.1135 85.8745 77.8487 86.6098L94.6811 103.442C95.5408 102.151 95.9997 100.635 96 99.0833V76.9167C95.9975 74.8178 95.1626 72.8056 93.6785 71.3215C92.1944 69.8374 90.1822 69.0025 88.0833 69V69ZM86.5 84.8333C85.2474 84.8333 84.0229 84.4619 82.9814 83.766C81.9399 83.0701 81.1281 82.0809 80.6488 80.9237C80.1694 79.7664 80.044 78.493 80.2884 77.2644C80.5327 76.0359 81.1359 74.9074 82.0217 74.0217C82.9074 73.1359 84.0359 72.5327 85.2644 72.2884C86.493 72.044 87.7664 72.1694 88.9237 72.6488C90.0809 73.1281 91.0701 73.9399 91.766 74.9814C92.4619 76.0229 92.8333 77.2474 92.8333 78.5C92.8333 80.1797 92.1661 81.7906 90.9783 82.9783C89.7906 84.1661 88.1797 84.8333 86.5 84.8333Z" fill="#676668"/>
</g>
<path d="M54.6992 125.32V134.892H53.8506V125.32H54.6992ZM47.1797 129.392C47.1851 127.361 48.1948 126.067 49.6182 126.062C51.0361 126.067 52.062 127.361 52.0566 129.392C52.062 131.427 51.0361 132.716 49.6182 132.711C48.1948 132.716 47.1851 131.427 47.1797 129.392ZM47.9961 129.392C47.9961 130.944 48.6621 131.964 49.6182 131.959C50.5796 131.964 51.2402 130.944 51.2402 129.392C51.2402 127.839 50.5796 126.819 49.6182 126.813C48.6621 126.819 47.9961 127.839 47.9961 129.392ZM61.3057 126.266V132.475H56.8906V126.266H61.3057ZM57.7178 131.787H60.4785V126.942H57.7178V131.787ZM63.3574 134.892V125.32H64.2061V134.892H63.3574ZM69.2549 128.253C69.2603 129.875 70.4365 131.524 71.8438 132.131L71.3711 132.797C70.2539 132.292 69.2925 131.191 68.8467 129.87C68.4009 131.271 67.4341 132.485 66.3438 133.033L65.8389 132.367C67.2085 131.712 68.4009 129.907 68.4062 128.253V127.007H66.1504V126.309H71.5322V127.007H69.2549V128.253ZM72.8643 134.87V125.32H73.7129V134.87H72.8643ZM83.6709 126.223H84.6377V131.368C84.6377 132.969 83.4399 134.134 81.6084 134.14C79.7715 134.134 78.5791 132.969 78.5791 131.368V126.223H79.5459V131.293C79.5405 132.421 80.3247 133.232 81.6084 133.237C82.8921 133.232 83.6655 132.421 83.6709 131.293V126.223ZM86.3564 134V126.223H88.999C90.8198 126.223 91.6523 127.232 91.6523 128.618C91.6523 129.649 91.1904 130.455 90.2021 130.799L91.9531 134H90.8252L89.1978 130.976C89.1387 130.981 89.0742 130.981 89.0098 130.981H87.3232V134H86.3564ZM87.3232 130.101H88.9668C90.2075 130.101 90.6909 129.542 90.6963 128.618C90.6909 127.689 90.2075 127.082 88.9561 127.082H87.3232V130.101ZM93.0488 134V126.223H94.0156V133.141H97.625V134H93.0488ZM102.792 125.492C104.914 125.492 106.16 126.078 106.165 127.136C106.16 128.221 104.914 128.806 102.792 128.812C100.66 128.806 99.4082 128.221 99.4082 127.136C99.4082 126.078 100.66 125.492 102.792 125.492ZM98.4414 130.144V129.456H107.143V130.144H98.4414ZM99.4941 131.615V130.971H106.025V133.108H100.354V134.097H106.315V134.763H99.5156V132.485H105.198V131.615H99.4941ZM100.289 127.136C100.278 127.802 101.208 128.167 102.792 128.167C104.376 128.167 105.3 127.802 105.306 127.136C105.3 126.507 104.376 126.131 102.792 126.126C101.208 126.131 100.278 126.507 100.289 127.136ZM27.6934 138.481V139.395H32.4199V138.481H33.2578V141.618H26.8555V138.481H27.6934ZM25.6953 143.111V142.413H34.3965V143.111H30.4541V144.046H33.2793V146.162H27.6074V147.097H33.5693V147.763H26.7695V145.539H32.4521V144.69H26.748V144.046H29.6162V143.111H25.6953ZM27.6934 140.963H32.4199V140.039H27.6934V140.963ZM43.1084 138.32V147.892H42.2705V142.703H40.4121V141.994H42.2705V138.32H43.1084ZM35.5352 139.91V139.212H39.832V142.553H36.4053V144.873C38.0542 144.873 39.2466 144.819 40.6377 144.562L40.7021 145.271C39.2681 145.528 38.0273 145.587 36.2979 145.593H35.5674V141.854H39.0156V139.91H35.5352ZM49.0596 138.943C51.0898 138.954 52.5508 139.942 52.5508 141.446C52.5508 142.87 51.2832 143.81 49.4678 143.933V145.937H53.4531V146.646H44.709V145.937H48.6406V143.933C46.8359 143.804 45.5684 142.864 45.5684 141.446C45.5684 139.942 47.0347 138.954 49.0596 138.943ZM46.3848 141.446C46.3794 142.547 47.5127 143.262 49.0596 143.272C50.6064 143.262 51.7344 142.547 51.7344 141.446C51.7344 140.367 50.6064 139.636 49.0596 139.642C47.5127 139.636 46.3794 140.367 46.3848 141.446ZM61.9395 141.221V141.897H55.3975V138.675H56.2354V141.221H61.9395ZM54.2051 143.885V143.197H62.9492V143.885H54.2051ZM55.3438 147.634V144.862H56.1816V146.936H61.9932V147.634H55.3438ZM74.6582 138.32V147.87H73.8418V138.32H74.6582ZM66.8594 145.571V139.502H70.458V140.2H67.6758V144.862C69.0562 144.852 69.9263 144.803 70.9521 144.572L71.0381 145.292C69.9316 145.518 68.9971 145.566 67.4609 145.571H66.8594ZM69.8135 142.682V141.973H71.8975V138.557H72.7031V147.376H71.8975V142.682H69.8135ZM86.625 138.32V143.272H85.7979V138.32H86.625ZM78.8154 142.51C80.2549 142.01 81.2754 140.732 81.2754 139.33V138.6H82.1348V139.33C82.124 140.678 83.1553 141.871 84.5732 142.338L84.1543 142.993C83.0317 142.612 82.1455 141.812 81.7158 140.78C81.2861 141.892 80.3892 142.768 79.2559 143.176L78.8154 142.51ZM80.4268 144.433V143.756H86.6357V146.044H81.2754V147.075H86.9795V147.763H80.4482V145.389H85.7979V144.433H80.4268ZM96.4434 138.32V147.87H95.627V142.886H94.3271V147.376H93.5215V138.535H94.3271V142.177H95.627V138.32H96.4434ZM88.1504 144.787C88.4565 144.787 88.811 144.787 89.1924 144.782V140.232H88.3545V139.534H92.8125V140.232H91.9854V144.669C92.3452 144.637 92.689 144.604 93.0059 144.562L93.0488 145.185C91.5342 145.464 89.5146 145.512 88.2578 145.507L88.1504 144.787ZM89.9766 144.766C90.3794 144.755 90.793 144.739 91.2012 144.717V140.232H89.9766V144.766ZM105.875 138.331V144.25H105.069V141.661H103.823V144.1H103.018V138.481H103.823V140.963H105.069V138.331H105.875ZM97.7109 140.114V139.416H99.752V138.363H100.59V139.416H102.609V140.114H97.7109ZM98.1299 142.23C98.1245 141.226 98.9678 140.598 100.171 140.598C101.379 140.598 102.217 141.226 102.223 142.23C102.217 143.208 101.379 143.863 100.171 143.863C98.9678 143.863 98.1245 143.208 98.1299 142.23ZM98.377 147.118C99.5747 146.71 100.316 145.732 100.321 144.862V144.519H101.148V144.862C101.138 145.679 101.583 146.533 102.486 147.021C103.394 146.484 103.855 145.561 103.866 144.862V144.519H104.693V144.862C104.688 145.792 105.413 146.742 106.638 147.118L106.24 147.763C105.279 147.43 104.602 146.78 104.269 146.001C103.979 146.753 103.399 147.478 102.502 147.838C101.583 147.494 100.998 146.817 100.708 146.044C100.359 146.785 99.6982 147.43 98.7852 147.763L98.377 147.118ZM98.8818 142.23C98.8818 142.832 99.4082 143.224 100.171 143.229C100.934 143.224 101.46 142.832 101.46 142.23C101.46 141.613 100.934 141.226 100.171 141.231C99.4082 141.226 98.8818 141.613 98.8818 142.23ZM109.839 139.062C111.139 139.067 112.079 140.184 112.208 141.973H114.351V138.32H115.188V147.892H114.351V142.671H112.218C112.127 144.545 111.171 145.716 109.839 145.711C108.426 145.716 107.438 144.427 107.443 142.392C107.438 140.361 108.426 139.067 109.839 139.062ZM108.249 142.392C108.254 143.944 108.899 144.964 109.839 144.959C110.773 144.964 111.429 143.944 111.429 142.392C111.429 140.839 110.773 139.819 109.839 139.813C108.899 139.819 108.254 140.839 108.249 142.392ZM125.522 145.937V146.646H116.778V145.937H118.948V143.364C118.132 142.939 117.638 142.252 117.638 141.382C117.638 139.905 119.088 138.933 121.129 138.922C123.17 138.933 124.62 139.905 124.62 141.382C124.62 142.236 124.142 142.913 123.353 143.337V145.937H125.522ZM118.454 141.382C118.449 142.451 119.561 143.165 121.129 143.165C122.681 143.165 123.804 142.451 123.804 141.382C123.804 140.313 122.681 139.609 121.129 139.62C119.561 139.609 118.449 140.313 118.454 141.382ZM119.775 145.937H122.504V143.665C122.09 143.772 121.628 143.831 121.129 143.831C120.64 143.831 120.184 143.777 119.775 143.67V145.937ZM127.295 147.064C126.919 147.059 126.597 146.748 126.607 146.366C126.597 145.99 126.919 145.679 127.295 145.679C127.676 145.679 127.988 145.99 127.982 146.366C127.988 146.748 127.676 147.059 127.295 147.064Z" fill="#858386"/>
</g>
<defs>
<clipPath id="clip0_2045_7119">
<rect width="154" height="219" rx="4" fill="white"/>
</clipPath>
<clipPath id="clip1_2045_7119">
<rect width="38" height="38" fill="white" transform="translate(58 69)"/>
</clipPath>
</defs>
</svg>
