    <svg width="100" height="100" viewBox="0 0 100 100" fill="none" xmlns="http://www.w3.org/2000/svg">
    <g clip-path="url(#clip0_653_6057)">
    <path d="M92.2471 20.4763C86.9532 17.8941 79.9389 18.8075 72.8668 22.3719C72.0269 21.628 71.0783 20.9933 70.0209 20.4763C64.727 17.8941 57.7127 18.8075 50.6405 22.3719C49.8007 21.628 48.8521 20.9933 47.7947 20.4763C37.1627 15.2918 19.581 24.2016 8.52396 40.381C-2.53305 56.5604 -2.87985 73.8772 7.75215 79.0616C13.046 81.6438 20.0604 80.7304 27.1325 77.1659C27.9723 77.9098 28.9209 78.5446 29.9784 79.0616C35.2723 81.6438 42.2866 80.7304 49.3587 77.1659C50.1985 77.9098 51.1472 78.5446 52.2046 79.0616C62.8366 84.246 80.4149 75.3334 91.4753 59.1569C102.532 42.9775 102.879 25.6607 92.2471 20.4763Z" fill="#7E16FD"/>
    <ellipse cx="73.5426" cy="37.158" rx="10.3241" ry="12.389" fill="white"/>
    <ellipse cx="76.984" cy="33.7166" rx="5.5062" ry="6.19448" fill="#231F20"/>
    <ellipse cx="58.4005" cy="37.158" rx="10.3241" ry="12.389" fill="white"/>
    <ellipse cx="61.8421" cy="33.7166" rx="5.5062" ry="6.19448" fill="#231F20"/>
    </g>
    <defs>
    <clipPath id="clip0_653_6057">
    <rect width="100" height="100" fill="white"/>
    </clipPath>
    </defs>
    </svg>